<svg width="248" height="64" viewBox="0 0 248 64" fill="none" xmlns="http://www.w3.org/2000/svg">
<path d="M59.1274 15.8682H81.8992V20.4225H72.8294V41.9487H68.1972V20.4225H59.1274V15.8682Z" fill="#3C388D"/>
<path d="M81.877 33.1514V22.6413H86.3535V33.1124C86.3535 34.5657 86.7817 35.7854 87.6381 36.7715C88.4944 37.7317 89.6492 38.2118 91.1025 38.2118C92.5817 38.2118 93.7495 37.7317 94.6058 36.7715C95.4882 35.7854 95.9293 34.5657 95.9293 33.1124V22.6413H100.406V33.1514C100.406 35.98 99.5624 38.2507 97.8756 39.9634C96.1888 41.6502 93.9311 42.4936 91.1025 42.4936C88.2998 42.4936 86.0551 41.6502 84.3683 39.9634C82.7074 38.2507 81.877 35.98 81.877 33.1514Z" fill="#3C388D"/>
<path d="M109.254 22.6024H119.959V26.9621H109.371C109.008 26.9621 108.709 27.0789 108.476 27.3124C108.242 27.5201 108.125 27.8055 108.125 28.1688C108.125 28.8435 108.45 29.2458 109.098 29.3755L116.728 31.0494C118.129 31.3348 119.245 31.9576 120.076 32.9178C120.906 33.878 121.321 35.0068 121.321 36.3044C121.321 37.9393 120.75 39.2887 119.609 40.3527C118.493 41.4167 117.091 41.9487 115.405 41.9487H104.194V37.6279H115.366C115.729 37.6279 116.027 37.5111 116.261 37.2775C116.494 37.018 116.611 36.6936 116.611 36.3044C116.611 35.6037 116.274 35.1755 115.599 35.0198L107.931 33.346C106.555 33.0346 105.452 32.4118 104.622 31.4775C103.818 30.5174 103.415 29.4015 103.415 28.1299C103.415 26.5209 103.96 25.1975 105.05 24.1594C106.166 23.1214 107.567 22.6024 109.254 22.6024Z" fill="#3C388D"/>
<path d="M124.11 33.1514V22.6413H128.587V33.1124C128.587 34.5657 129.015 35.7854 129.871 36.7715C130.728 37.7317 131.883 38.2118 133.336 38.2118C134.815 38.2118 135.983 37.7317 136.839 36.7715C137.721 35.7854 138.163 34.5657 138.163 33.1124V22.6413H142.639V33.1514C142.639 35.98 141.796 38.2507 140.109 39.9634C138.422 41.6502 136.164 42.4936 133.336 42.4936C130.533 42.4936 128.288 41.6502 126.602 39.9634C124.941 38.2507 124.11 35.98 124.11 33.1514Z" fill="#3C388D"/>
<path d="M156.66 22.6024H160.592V27.1178H156.582C155.051 27.1178 153.806 27.5979 152.845 28.5581C151.911 29.5183 151.444 30.8288 151.444 32.4896V41.9487H146.967V22.6024H151.288V25.7943H151.444C152.352 23.6664 154.091 22.6024 156.66 22.6024Z" fill="#3C388D"/>
<path d="M184.595 31.7111H189.461C188.916 34.8511 187.463 37.4332 185.101 39.4574C182.74 41.4815 179.82 42.4936 176.343 42.4936C172.398 42.4936 169.18 41.1831 166.689 38.5621C164.198 35.9411 162.952 32.7361 162.952 28.9473C162.952 25.1326 164.198 21.9147 166.689 19.2937C169.18 16.6467 172.398 15.3232 176.343 15.3232C179.742 15.3232 182.623 16.3093 184.984 18.2816C187.346 20.2539 188.812 22.784 189.383 25.8722H184.517C183.998 24.0816 183.012 22.6283 181.559 21.5125C180.106 20.3966 178.38 19.8516 176.382 19.8776C173.812 19.9035 171.71 20.7988 170.076 22.5635C168.467 24.3022 167.662 26.4171 167.662 28.9084C167.662 31.3997 168.467 33.5276 170.076 35.2923C171.71 37.031 173.812 37.9003 176.382 37.9003C178.484 37.9003 180.261 37.3294 181.714 36.1876C183.168 35.0458 184.128 33.5536 184.595 31.7111Z" fill="#3C388D"/>
<path d="M193.074 36.6547V13.9219H197.55V35.9151C197.55 37.0569 198.134 37.6279 199.302 37.6279H202.143V41.9487H198.523C196.785 41.9487 195.435 41.4945 194.475 40.5862C193.541 39.652 193.074 38.3415 193.074 36.6547Z" fill="#3C388D"/>
<path d="M204.585 33.1514V22.6413H209.062V33.1124C209.062 34.5657 209.49 35.7854 210.346 36.7715C211.203 37.7317 212.358 38.2118 213.811 38.2118C215.29 38.2118 216.458 37.7317 217.314 36.7715C218.197 35.7854 218.638 34.5657 218.638 33.1124V22.6413H223.114V33.1514C223.114 35.98 222.271 38.2507 220.584 39.9634C218.897 41.6502 216.639 42.4936 213.811 42.4936C211.008 42.4936 208.763 41.6502 207.077 39.9634C205.416 38.2507 204.585 35.98 204.585 33.1514Z" fill="#3C388D"/>
<path d="M238.463 22.0574C241.214 22.0315 243.485 22.9787 245.275 24.899C247.092 26.7934 248 29.2458 248 32.2561C248 35.2663 247.105 37.7317 245.314 39.652C243.524 41.5724 241.24 42.5196 238.463 42.4936C235.635 42.4936 233.455 41.4296 231.924 39.3017H231.69V41.9487H227.253V13.9219H231.69V25.4051H231.885C232.585 24.4189 233.507 23.6274 234.648 23.0306C235.79 22.4078 237.062 22.0834 238.463 22.0574ZM237.568 38.2507C239.307 38.2507 240.721 37.6798 241.811 36.5379C242.927 35.3961 243.485 33.9818 243.485 32.295C243.485 30.6082 242.927 29.1939 241.811 28.052C240.721 26.9102 239.307 26.3393 237.568 26.3393C235.855 26.3393 234.454 26.9232 233.364 28.091C232.274 29.2328 231.729 30.6341 231.729 32.295C231.729 33.9818 232.274 35.3961 233.364 36.5379C234.454 37.6798 235.855 38.2507 237.568 38.2507Z" fill="#3C388D"/>
<path d="M66.526 50.5495H75.0971V51.9582H71.5233V60.4849H70.0849V51.9582H66.526V50.5495Z" fill="#3C388D"/>
<path d="M78.7267 56.2734V50.5495H80.1651V56.2141C80.1651 57.1039 80.4271 57.8404 80.9511 58.4237C81.4849 58.997 82.172 59.2837 83.0123 59.2837C83.8625 59.2837 84.5496 58.997 85.0735 58.4237C85.5975 57.8503 85.8595 57.1138 85.8595 56.2141V50.5495H87.2979V56.2734C87.2979 57.5982 86.8975 58.6659 86.0967 59.4765C85.3059 60.2872 84.2777 60.6925 83.0123 60.6925C81.737 60.6925 80.7039 60.2872 79.913 59.4765C79.1222 58.656 78.7267 57.5883 78.7267 56.2734Z" fill="#3C388D"/>
<path d="M94.0407 50.5495H98.9491V51.9582H94.1296C93.7441 51.9582 93.4327 52.0719 93.1954 52.2993C92.968 52.5267 92.8544 52.7985 92.8544 53.1149C92.8544 53.3818 92.9334 53.624 93.0916 53.8415C93.2597 54.0491 93.4969 54.1924 93.8034 54.2715L97.4513 55.1613C98.1434 55.3293 98.6723 55.6605 99.038 56.1548C99.4038 56.6491 99.5867 57.1879 99.5867 57.7712C99.5867 58.5027 99.3297 59.1404 98.8156 59.6841C98.3114 60.218 97.6194 60.4849 96.7395 60.4849H91.6235V59.0613H96.6802C97.0856 59.0613 97.4068 58.9377 97.6441 58.6906C97.8913 58.4335 98.0148 58.137 98.0148 57.8008C98.0148 57.524 97.9259 57.2719 97.7479 57.0446C97.5799 56.8073 97.3327 56.6491 97.0065 56.57L93.3437 55.6803C92.6715 55.5122 92.1574 55.1909 91.8015 54.7164C91.4555 54.2419 91.2825 53.7229 91.2825 53.1594C91.2825 52.4575 91.5296 51.8495 92.0239 51.3354C92.5182 50.8114 93.1905 50.5495 94.0407 50.5495Z" fill="#3C388D"/>
<path d="M103.507 56.2734V50.5495H104.946V56.2141C104.946 57.1039 105.208 57.8404 105.732 58.4237C106.266 58.997 106.953 59.2837 107.793 59.2837C108.643 59.2837 109.33 58.997 109.854 58.4237C110.378 57.8503 110.64 57.1138 110.64 56.2141V50.5495H112.079V56.2734C112.079 57.5982 111.678 58.6659 110.877 59.4765C110.086 60.2872 109.058 60.6925 107.793 60.6925C106.518 60.6925 105.485 60.2872 104.694 59.4765C103.903 58.656 103.507 57.5883 103.507 56.2734Z" fill="#3C388D"/>
<path d="M118.137 60.4849H116.699V50.5495H121.696C122.645 50.5495 123.421 50.7966 124.025 51.2909C124.628 51.7852 124.929 52.4624 124.929 53.3225C124.929 54.2221 124.603 54.9092 123.95 55.3837V55.4134C124.692 55.6012 125.063 56.1696 125.063 57.1187V60.4849H123.624V57.4153C123.624 56.9704 123.377 56.748 122.883 56.748H118.137V60.4849ZM118.137 51.9582V55.3392H121.622C122.156 55.3392 122.596 55.186 122.942 54.8795C123.298 54.5731 123.476 54.1677 123.476 53.6635C123.476 53.1594 123.298 52.7491 122.942 52.4327C122.586 52.1164 122.146 51.9582 121.622 51.9582H118.137Z" fill="#3C388D"/>
<path d="M135.407 56.2734V50.5495H136.845V56.2141C136.845 57.1039 137.107 57.8404 137.631 58.4237C138.165 58.997 138.852 59.2837 139.693 59.2837C140.543 59.2837 141.23 58.997 141.754 58.4237C142.278 57.8503 142.54 57.1138 142.54 56.2141V50.5495H143.978V56.2734C143.978 57.5982 143.578 58.6659 142.777 59.4765C141.986 60.2872 140.958 60.6925 139.693 60.6925C138.417 60.6925 137.384 60.2872 136.593 59.4765C135.802 58.656 135.407 57.5883 135.407 56.2734Z" fill="#3C388D"/>
<path d="M156.102 58.0233V50.5495H157.541V60.4849H156.102L150.037 52.4476V60.4849H148.599V50.5495H150.363L156.102 58.0233Z" fill="#3C388D"/>
<path d="M162.466 60.4849V50.5495H163.905V60.4849H162.466Z" fill="#3C388D"/>
<path d="M172.697 58.7499L176.167 50.5495H177.739L173.469 60.4849H171.867L167.581 50.5495H169.183L172.697 58.7499Z" fill="#3C388D"/>
<path d="M188.693 60.4849H181.338V50.5495H188.693V51.9582H182.777V54.6571H188.249V56.0658H182.777V59.0761H188.693V60.4849Z" fill="#3C388D"/>
<path d="M194.588 60.4849H193.149V50.5495H198.147C199.096 50.5495 199.872 50.7966 200.475 51.2909C201.078 51.7852 201.379 52.4624 201.379 53.3225C201.379 54.2221 201.053 54.9092 200.401 55.3837V55.4134C201.142 55.6012 201.513 56.1696 201.513 57.1187V60.4849H200.074V57.4153C200.074 56.9704 199.827 56.748 199.333 56.748H194.588V60.4849ZM194.588 51.9582V55.3392H198.073C198.606 55.3392 199.046 55.186 199.392 54.8795C199.748 54.5731 199.926 54.1677 199.926 53.6635C199.926 53.1594 199.748 52.7491 199.392 52.4327C199.036 52.1164 198.597 51.9582 198.073 51.9582H194.588Z" fill="#3C388D"/>
<path d="M208.328 50.5495H213.237V51.9582H208.417C208.032 51.9582 207.72 52.0719 207.483 52.2993C207.255 52.5267 207.142 52.7985 207.142 53.1149C207.142 53.3818 207.221 53.624 207.379 53.8415C207.547 54.0491 207.784 54.1924 208.091 54.2715L211.739 55.1613C212.431 55.3293 212.96 55.6605 213.325 56.1548C213.691 56.6491 213.874 57.1879 213.874 57.7712C213.874 58.5027 213.617 59.1404 213.103 59.6841C212.599 60.218 211.907 60.4849 211.027 60.4849H205.911V59.0613H210.968C211.373 59.0613 211.694 58.9377 211.932 58.6906C212.179 58.4335 212.302 58.137 212.302 57.8008C212.302 57.524 212.213 57.2719 212.035 57.0446C211.867 56.8073 211.62 56.6491 211.294 56.57L207.631 55.6803C206.959 55.5122 206.445 55.1909 206.089 54.7164C205.743 54.2419 205.57 53.7229 205.57 53.1594C205.57 52.4575 205.817 51.8495 206.311 51.3354C206.806 50.8114 207.478 50.5495 208.328 50.5495Z" fill="#3C388D"/>
<path d="M218.104 60.4849V50.5495H219.542V60.4849H218.104Z" fill="#3C388D"/>
<path d="M223.525 50.5495H232.096V51.9582H228.522V60.4849H227.084V51.9582H223.525V50.5495Z" fill="#3C388D"/>
<path d="M242.732 50.5495H244.467L240.315 56.1696V60.4849H238.877V56.2438L234.739 50.5495H236.504L239.618 54.8795L242.732 50.5495Z" fill="#3C388D"/>
<path d="M17.3208 3.40929C17.3208 6.74021 19.3193 9.33092 21.762 9.33092C23.0943 9.33092 23.2424 9.84906 23.2424 15.1045V16.43L18.6531 17.8364C15.6183 18.7987 13.9898 19.6869 13.9898 20.4271C13.9898 21.6114 14.8781 21.6855 18.357 20.7972C20.2076 20.2791 20.4296 20.3531 20.0595 21.4634C19.7634 22.1296 19.3193 27.385 19.0972 33.0846L18.5791 43.3734H16.0624C14.1379 43.3734 13.3977 43.0033 13.1016 41.893C12.6575 40.1905 9.91873 39.8945 9.91873 41.5229C9.91873 43.7435 4.21917 42.4852 3.84907 40.1165C3.70103 39.3023 3.10886 38.5621 2.5167 38.5621C0.740213 38.5621 1.25836 45.446 3.40494 50.1833C7.32802 58.7696 15.1742 63.729 24.7228 63.729C30.2743 63.729 34.8636 62.3226 34.4935 60.7682C34.3454 60.3241 33.0871 60.102 31.7547 60.176C29.016 60.3981 28.8679 60.102 29.8302 56.6971C30.2003 55.3647 31.0145 54.7725 32.4949 54.4765C35.4557 53.9583 35.4557 51.8858 32.4949 51.8858C31.3106 51.8117 30.3483 51.5897 30.4964 51.2936C30.5704 50.9975 30.6444 49.8132 30.6444 48.6289C30.6444 46.4823 30.7925 46.4083 34.9376 45.9641C45.7446 44.8538 44.7823 44.7798 44.5602 46.9264C44.4122 48.2588 44.7083 48.9249 45.5225 49.147C46.4107 49.295 46.9289 48.4808 47.5951 46.0381C48.7054 41.5969 48.6314 38.4881 47.299 34.0469C44.8563 25.8306 38.8607 20.057 30.4964 17.6884L26.2032 16.504V15.1045C26.2032 9.84906 26.3512 9.33092 27.6836 9.33092C30.1263 9.33092 32.1248 6.74021 32.1248 3.40929V0.448479H24.7228H17.3208V3.40929ZM29.016 4.66764C28.7939 5.77794 27.9797 6 24.7228 6C21.4659 6 20.6517 5.77794 20.4296 4.66764C20.2076 3.55733 20.7997 3.40929 24.7228 3.40929C28.6459 3.40929 29.238 3.55733 29.016 4.66764ZM26.4993 21.3154C27.3875 24.7943 27.0914 25.6085 24.7228 25.6085C23.0943 25.6085 22.5022 25.2384 22.5022 24.2762C22.5022 21.6114 23.4644 19.6869 24.7228 19.6869C25.463 19.6869 26.2032 20.4271 26.4993 21.3154ZM32.3469 21.3154C33.0131 21.8335 33.7533 23.1659 34.0494 24.2762C34.4195 26.1267 34.2714 26.3487 32.643 26.3487C30.4964 26.3487 30.2743 26.1267 29.5341 22.7958C29.016 20.2051 30.0523 19.6129 32.3469 21.3154ZM40.2671 27.6811C39.1568 28.0512 37.3062 26.4228 37.3062 25.0164C37.3062 24.1281 37.7504 24.2762 39.2308 25.6826C40.2671 26.6448 40.7112 27.5331 40.2671 27.6811ZM27.5356 31.6782L27.7576 34.491H24.7968C21.836 34.491 21.762 34.417 21.762 32.0483C21.762 28.9395 22.2801 28.4213 25.0929 28.7174C27.0914 28.9395 27.3135 29.2355 27.5356 31.6782ZM35.8999 32.1223C36.1219 33.3807 36.27 34.565 36.1219 34.713C35.9739 34.8611 34.7155 34.7871 33.3092 34.639C31.0885 34.3429 30.7925 34.0469 30.4964 31.8263C30.3483 30.4199 30.2743 29.1615 30.4224 29.0135C30.5704 28.8654 31.7547 29.0135 33.0131 29.2355C34.9376 29.6056 35.5298 30.1978 35.8999 32.1223ZM43.82 32.7885C45.5225 35.0831 44.9303 36.1194 42.3396 35.6013C39.0087 34.8611 38.7867 34.639 38.7867 32.4924C38.7867 30.864 39.0087 30.7159 40.8592 31.086C41.9695 31.3821 43.3019 32.1223 43.82 32.7885ZM27.6836 40.4126V43.3734H24.7228H21.762V40.4126V37.4518H24.7228H27.6836V40.4126ZM36.1959 40.4126C36.1959 42.8553 36.0479 43.0033 33.4572 43.2254L30.6444 43.4474V40.4126V37.3778L33.4572 37.5998C36.0479 37.8219 36.1959 37.9699 36.1959 40.4126ZM43.82 38.6361C47.373 39.5984 45.1524 42.5592 40.8592 42.6332C39.897 42.6332 39.5269 42.0411 39.5269 40.4126C39.5269 38.044 40.3411 37.7479 43.82 38.6361ZM10.1408 46.1122C10.4369 46.2602 10.6589 47.2965 10.6589 48.3328C10.6589 49.9612 10.4369 50.1093 8.66039 49.7392C6.43978 49.147 4.73731 47.4445 4.73731 45.7421C4.73731 45.0019 5.32947 44.8538 7.17998 45.2239C8.43832 45.52 9.77069 45.8901 10.1408 46.1122ZM18.9492 48.999C19.0972 50.4053 19.1713 51.6637 19.0232 51.8117C18.8752 51.9598 17.6909 51.8117 16.4325 51.5897C14.508 51.2196 13.9158 50.6274 13.5457 48.7029C13.3237 47.4445 13.1756 46.2602 13.3237 46.1122C13.4717 45.9641 14.7301 46.0381 16.1364 46.1862C18.357 46.4823 18.6531 46.7784 18.9492 48.999ZM27.5356 49.073C27.3135 51.7377 27.1655 51.8858 24.7228 51.8858C22.2801 51.8858 22.1321 51.7377 21.91 49.073L21.688 46.3342H24.7228H27.7576L27.5356 49.073ZM11.3991 54.1064C13.0276 56.1049 11.7692 56.8451 9.99275 54.9206C8.58637 53.4402 8.43833 52.9961 9.32657 52.9961C9.99275 52.9961 10.881 53.5142 11.3991 54.1064ZM19.0232 54.9946C19.2453 55.3647 19.6154 56.6971 19.9115 57.9554C20.2816 59.8059 20.1335 60.3981 19.3933 60.3981C17.6909 60.3981 15.9884 58.6956 15.3962 56.475C15.0261 54.6985 15.1742 54.4765 16.8026 54.4765C17.8389 54.4765 18.8752 54.6985 19.0232 54.9946ZM26.9434 56.475C26.9434 59.2138 25.9811 61.1383 24.7228 61.1383C23.4644 61.1383 22.5022 59.2138 22.5022 56.475C22.5022 55.5868 23.0943 55.2167 24.7228 55.2167C26.3512 55.2167 26.9434 55.5868 26.9434 56.475Z" fill="#3C388D"/>
<path d="M2.44267 16.1343L4.88534 19.5393L2.44267 23.1663L0 26.7192L3.03483 24.2766C4.66328 23.0182 6.36575 21.9079 6.73585 21.9079C7.10595 21.9079 8.88244 23.0182 10.7329 24.2766L13.9898 26.7192L11.6212 23.4623C10.2888 21.6118 9.17852 19.8353 9.17852 19.4652C9.17852 19.0951 10.2888 17.3927 11.6212 15.7642L13.9898 12.6554L10.5109 15.1721L6.95791 17.6888L3.47896 15.1721L0 12.7294L2.44267 16.1343Z" fill="#3C388D"/>
<path d="M8.58624 32.6409C9.1784 34.0472 9.1784 34.9355 8.58624 36.3419C7.77202 38.0443 7.84604 38.1184 9.5485 37.3041C10.9549 36.712 11.8431 36.712 13.2495 37.3041C14.952 38.1184 15.026 38.0443 14.2118 36.3419C13.6196 34.9355 13.6196 34.0472 14.2118 32.6409C15.026 30.9384 14.952 30.8644 13.2495 31.6786C11.8431 32.2708 10.9549 32.2708 9.5485 31.6786C7.84604 30.8644 7.77202 30.9384 8.58624 32.6409Z" fill="#3C388D"/>
<path d="M39.4527 53.2184L41.8954 56.8454L39.4527 60.2503L37.01 63.6553L40.4149 61.2126L43.8199 58.7699L47.4469 61.2126L50.9999 63.6553L48.6312 60.6204C47.2988 58.992 46.1885 57.2895 46.1885 56.9194C46.1885 56.5493 47.2988 54.7728 48.6312 52.9223L50.9999 49.6654L47.743 52.0341C45.8924 53.3664 44.116 54.4768 43.7459 54.4768C43.3758 54.4768 41.6733 53.3664 40.0448 52.0341L37.01 49.6654L39.4527 53.2184Z" fill="#3C388D"/>
</svg>
